<svg xmlns="http://www.w3.org/2000/svg" width="480" height="360" viewBox="0 0 480 360"><defs><linearGradient id="g2" x1="0" y1="0" x2="0" y2="1"><stop offset="0" stop-color="#7A8CA6" /><stop offset="1" stop-color="#C9D3E0" /></linearGradient></defs><path fill="url(#g2)" d="M0 0H480V360H0Z" /><path d="M330.0 250.0 l36.0 -60.0 l24.0 24.0 l36.0 -48.0 l48.0 84.0 z" fill="#DDE7F0" stroke="#9CC9E6" stroke-width="2" /><path fill="#34607F" d="M0 240H480V360H0Z" /><path d="M20 296 q10 -6 20 0" fill="none" stroke="#FFFFFF" stroke-width="3" opacity=".6" stroke-linecap="round" /><path d="M90 260 q10 -6 20 0" fill="none" stroke="#FFFFFF" stroke-width="3" opacity=".6" stroke-linecap="round" /><path d="M160 278 q10 -6 20 0" fill="none" stroke="#FFFFFF" stroke-width="3" opacity=".6" stroke-linecap="round" /><path d="M230 296 q10 -6 20 0" fill="none" stroke="#FFFFFF" stroke-width="3" opacity=".6" stroke-linecap="round" /><path d="M300 260 q10 -6 20 0" fill="none" stroke="#FFFFFF" stroke-width="3" opacity=".6" stroke-linecap="round" /><path d="M370 278 q10 -6 20 0" fill="none" stroke="#FFFFFF" stroke-width="3" opacity=".6" stroke-linecap="round" /><path d="M440 296 q10 -6 20 0" fill="none" stroke="#FFFFFF" stroke-width="3" opacity=".6" stroke-linecap="round" /><path d="M0 280 q120 -10 240 0 t240 0 v80 h-480 z" fill="#EAF6FF" stroke="#9CC9E6" stroke-width="3" /><path fill="#FFFFFF" stroke="#FFFFFF" stroke-width="0" d="M115.6 30.9A2.3 2.3 0 1 1 111 30.9A2.3 2.3 0 1 1 115.6 30.9Z" /><path fill="#FFFFFF" stroke="#FFFFFF" stroke-width="0" d="M76.7 20A2.3 2.3 0 1 1 72.1 20A2.3 2.3 0 1 1 76.7 20Z" /><path fill="#FFFFFF" stroke="#FFFFFF" stroke-width="0" d="M443.6 240.1A3 3 0 1 1 437.6 240.1A3 3 0 1 1 443.6 240.1Z" /><path fill="#FFFFFF" stroke="#FFFFFF" stroke-width="0" d="M108.6 161A2.1 2.1 0 1 1 104.4 161A2.1 2.1 0 1 1 108.6 161Z" /><path fill="#FFFFFF" stroke="#FFFFFF" stroke-width="0" d="M84.8 31.9A1.9 1.9 0 1 1 81 31.9A1.9 1.9 0 1 1 84.8 31.9Z" /><path fill="#FFFFFF" stroke="#FFFFFF" stroke-width="0" d="M448.3 248.7A3.1 3.1 0 1 1 442.1 248.7A3.1 3.1 0 1 1 448.3 248.7Z" /><path fill="#FFFFFF" stroke="#FFFFFF" stroke-width="0" d="M386.3 58A2.1 2.1 0 1 1 382.1 58A2.1 2.1 0 1 1 386.3 58Z" /><path fill="#FFFFFF" stroke="#FFFFFF" stroke-width="0" d="M304.1 219.6A3.2 3.2 0 1 1 297.7 219.6A3.2 3.2 0 1 1 304.1 219.6Z" /><path fill="#FFFFFF" stroke="#FFFFFF" stroke-width="0" d="M425.1 26A2.7 2.7 0 1 1 419.7 26A2.7 2.7 0 1 1 425.1 26Z" /><path fill="#FFFFFF" stroke="#FFFFFF" stroke-width="0" d="M324.3 151.8A1.9 1.9 0 1 1 320.5 151.8A1.9 1.9 0 1 1 324.3 151.8Z" /><path fill="#FFFFFF" stroke="#FFFFFF" stroke-width="0" d="M230.7 26.8A3.4 3.4 0 1 1 223.9 26.8A3.4 3.4 0 1 1 230.7 26.8Z" /><path fill="#FFFFFF" stroke="#FFFFFF" stroke-width="0" d="M417.5 164.3A2.1 2.1 0 1 1 413.3 164.3A2.1 2.1 0 1 1 417.5 164.3Z" /><path fill="#FFFFFF" stroke="#FFFFFF" stroke-width="0" d="M439.6 171.7A3.3 3.3 0 1 1 433 171.7A3.3 3.3 0 1 1 439.6 171.7Z" /><path fill="#FFFFFF" stroke="#FFFFFF" stroke-width="0" d="M409.4 152.5A2.3 2.3 0 1 1 404.8 152.5A2.3 2.3 0 1 1 409.4 152.5Z" /><path fill="#FFFFFF" stroke="#FFFFFF" stroke-width="0" d="M289.3 129.3A1.8 1.8 0 1 1 285.7 129.3A1.8 1.8 0 1 1 289.3 129.3Z" /><path fill="#FFFFFF" stroke="#FFFFFF" stroke-width="0" d="M148.1 243.8A1.6 1.6 0 1 1 144.9 243.8A1.6 1.6 0 1 1 148.1 243.8Z" /><path fill="#FFFFFF" stroke="#FFFFFF" stroke-width="0" d="M24.3 187.9A2.1 2.1 0 1 1 20.1 187.9A2.1 2.1 0 1 1 24.3 187.9Z" /><path fill="#FFFFFF" stroke="#FFFFFF" stroke-width="0" d="M258.8 141.4A2.2 2.2 0 1 1 254.4 141.4A2.2 2.2 0 1 1 258.8 141.4Z" /><path fill="#FFFFFF" stroke="#FFFFFF" stroke-width="0" d="M481 58.7A2.3 2.3 0 1 1 476.4 58.7A2.3 2.3 0 1 1 481 58.7Z" /><path fill="#FFFFFF" stroke="#FFFFFF" stroke-width="0" d="M99.4 189.8A2.1 2.1 0 1 1 95.2 189.8A2.1 2.1 0 1 1 99.4 189.8Z" /><path fill="#FFFFFF" stroke="#FFFFFF" stroke-width="0" d="M172.9 224.1A2.1 2.1 0 1 1 168.7 224.1A2.1 2.1 0 1 1 172.9 224.1Z" /><path fill="#FFFFFF" stroke="#FFFFFF" stroke-width="0" d="M269.8 271.3A1.7 1.7 0 1 1 266.4 271.3A1.7 1.7 0 1 1 269.8 271.3Z" /><path fill="#FFFFFF" stroke="#FFFFFF" stroke-width="0" d="M32.6 68.7A3 3 0 1 1 26.6 68.7A3 3 0 1 1 32.6 68.7Z" /><path fill="#FFFFFF" stroke="#FFFFFF" stroke-width="0" d="M297.6 71.2A2.2 2.2 0 1 1 293.2 71.2A2.2 2.2 0 1 1 297.6 71.2Z" /><path fill="#FFFFFF" stroke="#FFFFFF" stroke-width="0" d="M86.8 137.7A1.6 1.6 0 1 1 83.6 137.7A1.6 1.6 0 1 1 86.8 137.7Z" /><path fill="#FFFFFF" stroke="#FFFFFF" stroke-width="0" d="M338.1 268.8A3.4 3.4 0 1 1 331.3 268.8A3.4 3.4 0 1 1 338.1 268.8Z" /><path fill="#FFFFFF" stroke="#FFFFFF" stroke-width="0" d="M354.2 288A1.5 1.5 0 1 1 351.2 288A1.5 1.5 0 1 1 354.2 288Z" /><path fill="#FFFFFF" stroke="#FFFFFF" stroke-width="0" d="M141.8 289.8A3.1 3.1 0 1 1 135.6 289.8A3.1 3.1 0 1 1 141.8 289.8Z" /><path fill="#FFFFFF" stroke="#FFFFFF" stroke-width="0" d="M199.7 283A2.7 2.7 0 1 1 194.3 283A2.7 2.7 0 1 1 199.7 283Z" /><path fill="#FFFFFF" stroke="#FFFFFF" stroke-width="0" d="M394.5 88A1.9 1.9 0 1 1 390.7 88A1.9 1.9 0 1 1 394.5 88Z" /><path fill="#FFFFFF" stroke="#FFFFFF" stroke-width="0" d="M215.5 40.9A2.3 2.3 0 1 1 210.9 40.9A2.3 2.3 0 1 1 215.5 40.9Z" /><path fill="#FFFFFF" stroke="#FFFFFF" stroke-width="0" d="M463.2 99.4A1.5 1.5 0 1 1 460.2 99.4A1.5 1.5 0 1 1 463.2 99.4Z" /><path fill="#FFFFFF" stroke="#FFFFFF" stroke-width="0" d="M24.6 50.9A3.1 3.1 0 1 1 18.4 50.9A3.1 3.1 0 1 1 24.6 50.9Z" /><path fill="#FFFFFF" stroke="#FFFFFF" stroke-width="0" d="M175.8 87.1A1.7 1.7 0 1 1 172.4 87.1A1.7 1.7 0 1 1 175.8 87.1Z" /><path fill="#FFFFFF" stroke="#FFFFFF" stroke-width="0" d="M473.1 127.2A1.9 1.9 0 1 1 469.3 127.2A1.9 1.9 0 1 1 473.1 127.2Z" /><path fill="#FFFFFF" stroke="#FFFFFF" stroke-width="0" d="M30.3 16.6A1.8 1.8 0 1 1 26.7 16.6A1.8 1.8 0 1 1 30.3 16.6Z" /><path fill="#FFFFFF" stroke="#FFFFFF" stroke-width="0" d="M326.5 44.9A1.6 1.6 0 1 1 323.3 44.9A1.6 1.6 0 1 1 326.5 44.9Z" /><path fill="#FFFFFF" stroke="#FFFFFF" stroke-width="0" d="M239 74.7A3.5 3.5 0 1 1 232 74.7A3.5 3.5 0 1 1 239 74.7Z" /><path fill="#FFFFFF" stroke="#FFFFFF" stroke-width="0" d="M61.7 158.8A3 3 0 1 1 55.7 158.8A3 3 0 1 1 61.7 158.8Z" /><path fill="#FFFFFF" stroke="#FFFFFF" stroke-width="0" d="M199 296.3A2.5 2.5 0 1 1 194 296.3A2.5 2.5 0 1 1 199 296.3Z" /><path fill="#FFFFFF" stroke="#FFFFFF" stroke-width="0" d="M117.7 123.2A1.6 1.6 0 1 1 114.5 123.2A1.6 1.6 0 1 1 117.7 123.2Z" /><path fill="#FFFFFF" stroke="#FFFFFF" stroke-width="0" d="M205.5 74.6A3.3 3.3 0 1 1 198.9 74.6A3.3 3.3 0 1 1 205.5 74.6Z" /><path fill="#FFFFFF" stroke="#FFFFFF" stroke-width="0" d="M400.5 149.6A1.6 1.6 0 1 1 397.3 149.6A1.6 1.6 0 1 1 400.5 149.6Z" /><path fill="#FFFFFF" stroke="#FFFFFF" stroke-width="0" d="M124 72.7A1.9 1.9 0 1 1 120.2 72.7A1.9 1.9 0 1 1 124 72.7Z" /><path fill="#FFFFFF" stroke="#FFFFFF" stroke-width="0" d="M112.9 260.9A1.8 1.8 0 1 1 109.3 260.9A1.8 1.8 0 1 1 112.9 260.9Z" /><path fill="#FFFFFF" stroke="#FFFFFF" stroke-width="0" d="M27.2 278.4A2.6 2.6 0 1 1 22 278.4A2.6 2.6 0 1 1 27.2 278.4Z" /><path fill="#FFFFFF" stroke="#FFFFFF" stroke-width="0" d="M478.8 120.9A3.3 3.3 0 1 1 472.2 120.9A3.3 3.3 0 1 1 478.8 120.9Z" /><path fill="#FFFFFF" stroke="#FFFFFF" stroke-width="0" d="M316.9 237.3A3 3 0 1 1 310.9 237.3A3 3 0 1 1 316.9 237.3Z" /><path fill="#FFFFFF" stroke="#FFFFFF" stroke-width="0" d="M239.2 27.9A1.9 1.9 0 1 1 235.4 27.9A1.9 1.9 0 1 1 239.2 27.9Z" /><path fill="#FFFFFF" stroke="#FFFFFF" stroke-width="0" d="M422.7 269.9A3.3 3.3 0 1 1 416.1 269.9A3.3 3.3 0 1 1 422.7 269.9Z" /><path fill="#FFFFFF" stroke="#FFFFFF" stroke-width="0" d="M164.7 197.1A3.1 3.1 0 1 1 158.5 197.1A3.1 3.1 0 1 1 164.7 197.1Z" /><path fill="#FFFFFF" stroke="#FFFFFF" stroke-width="0" d="M311 244.4A2.6 2.6 0 1 1 305.8 244.4A2.6 2.6 0 1 1 311 244.4Z" /><path fill="#FFFFFF" stroke="#FFFFFF" stroke-width="0" d="M316.3 205.8A2 2 0 1 1 312.3 205.8A2 2 0 1 1 316.3 205.8Z" /><path fill="#FFFFFF" stroke="#FFFFFF" stroke-width="0" d="M444.5 286.9A1.6 1.6 0 1 1 441.3 286.9A1.6 1.6 0 1 1 444.5 286.9Z" /><path fill="#FFFFFF" stroke="#FFFFFF" stroke-width="0" d="M468.9 288.5A2.8 2.8 0 1 1 463.3 288.5A2.8 2.8 0 1 1 468.9 288.5Z" /><path fill="#FFFFFF" stroke="#FFFFFF" stroke-width="0" d="M23.2 269.7A1.8 1.8 0 1 1 19.6 269.7A1.8 1.8 0 1 1 23.2 269.7Z" /><path fill="#FFFFFF" stroke="#FFFFFF" stroke-width="0" d="M466.5 200.2A1.6 1.6 0 1 1 463.3 200.2A1.6 1.6 0 1 1 466.5 200.2Z" /><path fill="#FFFFFF" stroke="#FFFFFF" stroke-width="0" d="M82.9 190.6A2.6 2.6 0 1 1 77.7 190.6A2.6 2.6 0 1 1 82.9 190.6Z" /><path fill="#FFFFFF" stroke="#FFFFFF" stroke-width="0" d="M360.2 278.2A1.9 1.9 0 1 1 356.4 278.2A1.9 1.9 0 1 1 360.2 278.2Z" /><path fill="#FFFFFF" stroke="#FFFFFF" stroke-width="0" d="M3.1 276.7A1.5 1.5 0 1 1 0.1 276.7A1.5 1.5 0 1 1 3.1 276.7Z" /><path fill="#FFFFFF" stroke="#FFFFFF" stroke-width="0" d="M423.8 34.8A3.1 3.1 0 1 1 417.6 34.8A3.1 3.1 0 1 1 423.8 34.8Z" /><path fill="#FFFFFF" stroke="#FFFFFF" stroke-width="0" d="M378.4 263.4A2.6 2.6 0 1 1 373.2 263.4A2.6 2.6 0 1 1 378.4 263.4Z" /><path fill="#FFFFFF" stroke="#FFFFFF" stroke-width="0" d="M424.6 60.5A2.8 2.8 0 1 1 419 60.5A2.8 2.8 0 1 1 424.6 60.5Z" /><path fill="#FFFFFF" stroke="#FFFFFF" stroke-width="0" d="M161.7 267.5A3 3 0 1 1 155.7 267.5A3 3 0 1 1 161.7 267.5Z" /><path fill="#FFFFFF" stroke="#FFFFFF" stroke-width="0" d="M227.9 157.9A1.6 1.6 0 1 1 224.7 157.9A1.6 1.6 0 1 1 227.9 157.9Z" /><path fill="#FFFFFF" stroke="#FFFFFF" stroke-width="0" d="M18.9 178.3A2.5 2.5 0 1 1 13.9 178.3A2.5 2.5 0 1 1 18.9 178.3Z" /><path fill="#FFFFFF" stroke="#FFFFFF" stroke-width="0" d="M416.9 182.4A1.8 1.8 0 1 1 413.3 182.4A1.8 1.8 0 1 1 416.9 182.4Z" /><path fill="#FFFFFF" stroke="#FFFFFF" stroke-width="0" d="M176.5 230.3A2.5 2.5 0 1 1 171.5 230.3A2.5 2.5 0 1 1 176.5 230.3Z" /><path fill="#FFFFFF" stroke="#FFFFFF" stroke-width="0" d="M8.3 251.3A3.2 3.2 0 1 1 1.9 251.3A3.2 3.2 0 1 1 8.3 251.3Z" /><path fill="#FFFFFF" stroke="#FFFFFF" stroke-width="0" d="M43.2 163A2.3 2.3 0 1 1 38.6 163A2.3 2.3 0 1 1 43.2 163Z" /><path d="M40 80 l30 -6" stroke="#FFFFFF" stroke-width="2" opacity=".7" /><path d="M200 60 l30 -6" stroke="#FFFFFF" stroke-width="2" opacity=".7" /><path d="M330 120 l30 -6" stroke="#FFFFFF" stroke-width="2" opacity=".7" /><path d="M100 170 l30 -6" stroke="#FFFFFF" stroke-width="2" opacity=".7" /></svg>